# xmcd
#
# Track frame offsets:
#	150
#	14377
#	31550
#	47457
#	56982
#	69807
#	80412
#	96920
#	116760
#	133505
#	159147
#	177580
#	194450
#	209435
#	224365
#	238622
#	254905
#
# Disc length: 3623 seconds
#
# Revision: 1
# Processed by: cddbd v1.5.1PL0 Copyright (c) Steve Scherf et al.
# Submitted via: CDex 1.50Beta5
#
DISCID=ef0e2511
DTITLE=さまざまなアーティスト - hemma hos mej
DYEAR=1900
DGENRE=
TTITLE0=waltz for debbie/once upon a time
TTITLE1=waltz for debbie/flowers first
TTITLE2=the leslies/still can't beliebe
TTITLE3=the leslies/take a look
TTITLE4=pendletones/I love love
TTITLE5=pendletones/the perfume that you wear
TTITLE6=linda johansson/red hearts
TTITLE7=little viking/where's my heaven?
TTITLE8=littleviking/look to the rainbow
TTITLE9=bla kongo/ibland
TTITLE10=bla kongo/hela tiden
TTITLE11=pineforest crunch/innocent
TTITLE12=pineforest crunch/situation endless
TTITLE13=josie/no one like you
TTITLE14=josie/walk away
TTITLE15=ulf turesson/stay in control
TTITLE16=ulf turesson/child
EXTD=
EXTT0=
EXTT1=
EXTT2=
EXTT3=
EXTT4=
EXTT5=
EXTT6=
EXTT7=
EXTT8=
EXTT9=
EXTT10=
EXTT11=
EXTT12=
EXTT13=
EXTT14=
EXTT15=
EXTT16=
PLAYORDER=
